<?xml version="1.0" encoding="UTF-8"?>
<svg id="a" data-name="Layer_1" xmlns="http://www.w3.org/2000/svg" viewBox="0 0 927.85796 845.08447">
  <defs>
    <style>
      .b, .c, .d {
        fill: #244170;
      }

      .e {
        fill: none;
        stroke-linecap: round;
        stroke-linejoin: round;
        stroke-width: 59.23077px;
      }

      .e, .c, .d, .f {
        stroke: #c3e4fa;
      }

      .c {
        stroke-width: 34.6197px;
      }

      .c, .d, .f {
        stroke-miterlimit: 10;
      }

      .d {
        stroke-width: 36.22237px;
      }

      .g {
        fill: #ff6f5c;
      }

      .f {
        fill: #4db6ff;
        stroke-width: 36.57034px;
      }
    </style>
  </defs>
  <g>
    <path class="b" d="M925.91918,460.18295c-.51955-1.57705-1.36126-3.07041-2.61545-4.32495-4.28118-4.28118-11.22717-4.28491-15.51208,0-22.84726,22.84167-52.67774,36.80068-72.53245,33.97387-6.74859-.96462-11.34262-3.83053-14.04467-8.75976-2.49348-4.5512-4.72997-11.851,4.61265-22.66849,6.55678-7.5903,15.13964-12.50277,15.2253-12.55119,5.26628-2.96741,7.14151-9.63872,4.18621-14.91617-2.95903-5.28677-9.64989-7.16945-14.92921-4.21042-6.85287,3.83728-15.47437,10.34949-22.22389,18.71156-13.45947,14.57306-30.41475,39.16915-23.5116,65.53223,30.6033,31.4904,65.87371,27.05488,104.23025,2.66247,43.78996-27.84783,40.82977-46.36805,37.11492-53.44916Z"/>
    <path class="b" d="M66.17032,701.30145c-43.6035,5.18877-61.49965,35.90333-65.41515,81.19003-4.41875,51.10605,11.65594,60.37978,19.63963,61.89002,1.20507.45391,2.50232.70298,3.84357.70298.48231,0,.97207-.03166,1.46368-.0987,6.00558-.80074,10.22344-6.31842,9.42084-12.32214-4.27374-32.02042,2.74115-64.201,17.0577-78.25498,4.86591-4.77839,9.94412-6.689,15.48973-5.83984,20.38171,3.10614,15.98135,36.80999,15.93479,37.15077-.84171,5.98509,3.32029,11.52698,9.30725,12.38359,6.01302.85102,11.55491-3.30912,12.41338-9.30352,1.11406-7.78304,1.17598-18.60099-1.37616-29.05209-3.40828-19.54233-12.65547-47.92566-37.77926-58.44612Z"/>
  </g>
  <path class="e" d="M461.53637,465.85701s109.87482,132.51762,275.9791,63.16481"/>
  <path class="e" d="M240.46462,457.90548s-148.55448,85.48107-152.70405,203.32876"/>
  <ellipse class="f" cx="360.70528" cy="510.4378" rx="157.63138" ry="121.65545"/>
  <path class="g" d="M791.88748,475.71093l20.66347,52.21424c4.96874,12.55544-1.76263,26.68915-14.64227,30.74405l-73.59133,20.03965c-11.63487,3.66301-24.123-2.28463-28.61152-13.62662l-14.44736-36.50684c-4.48853-11.342.54759-24.22475,11.53823-29.51565l67.37522-35.74706c12.16649-5.85695,26.74683-.15722,31.71557,12.39822Z"/>
  <path class="g" d="M89.74082,728.52472l-54.03147-15.29402c-12.99241-3.6776-20.13307-17.609-15.53257-30.304l28.7722-70.63591c4.15587-11.46806,16.46526-17.77734,28.20199-14.45517l37.7774,10.69318c11.73673,3.32217,18.91311,15.14704,16.44177,27.09192l-12.51813,75.23675c-2.73574,13.22283-16.11878,21.34484-29.11119,17.66724Z"/>
  <ellipse class="b" cx="366.56807" cy="714.6119" rx="131.37068" ry="22.09974"/>
  <rect class="d" x="30.90215" y="157.38843" width="663.08861" height="123.94763" rx="50.51328" ry="50.51328"/>
  <path class="f" d="M82.43212,306.71022l25.99721-165.69494c7.59935-48.43496,49.29487-84.12521,98.28018-84.12521h310.09258c48.98531,0,90.68083,35.69025,98.28018,84.12521l25.99721,165.69494c9.47843,60.4114-37.18234,115.01959-98.28018,115.01959H180.7123c-61.09784,0-107.75861-54.60819-98.28018-115.01959Z"/>
  <rect class="c" x="281.64826" y="17.30985" width="159.10687" height="79.22883" rx="39.61437" ry="39.61437"/>
  <rect class="b" x="323.94902" y="472.49501" width="67.8957" height="89.23222" rx="18.64152" ry="18.64152" transform="translate(875.00799 159.21425) rotate(90)"/>
  <g>
    <path class="b" d="M408.07277,281.19509c11.80245-2.09914,20.20998,12.07973,15.82761,23.23764-9.27964,23.6268-32.29217,40.35331-59.21138,40.35331s-49.93174-16.72651-59.21138-40.35331c-4.38237-11.15791,3.89302-24.36446,15.82761-23.23764,45.84204,4.32823,51.61411,6.25225,86.76753,0Z"/>
    <g>
      <path class="b" d="M471.31068,175.63401l6.18215-16.6615,6.10924,16.55525c3.47149,9.40727,10.88742,16.8232,20.29469,20.29469l16.55525,6.10924-16.6615,6.18215c-9.36113,3.47339-16.74292,10.85519-20.21632,20.21632l-6.18215,16.6615-6.10924-16.55525c-3.47149-9.40727-10.88742-16.8232-20.29469-20.29469l-16.55525-6.10924,16.6615-6.18215c9.36113-3.47339,16.74292-10.85519,20.21632-20.21632Z"/>
      <path class="b" d="M245.80382,175.63401l6.18215-16.6615,6.10924,16.55525c3.47149,9.40727,10.88742,16.8232,20.29469,20.29469l16.55525,6.10924-16.6615,6.18215c-9.36113,3.47339-16.74292,10.85519-20.21632,20.21632l-6.18215,16.6615-6.10924-16.55525c-3.47149-9.40727-10.88742-16.8232-20.29469-20.29469l-16.55525-6.10924,16.6615-6.18215c9.36113-3.47339,16.74292-10.85519,20.21632-20.21632Z"/>
    </g>
  </g>
</svg>